<svg xmlns="http://www.w3.org/2000/svg" viewBox="0 0 87.24 66.77"><defs><style>.cls-1{fill:#c9caca;}.cls-2{fill:#3fbfef;}.cls-3{fill:#595958;}.cls-4{fill:#5b5b5a;}.cls-5{fill:#5a5a5a;}.cls-6{fill:#5c5c5b;}.cls-7{fill:#595a5a;}</style></defs><title>forum</title><g id="Calque_2" data-name="Calque 2"><g id="Layer_2" data-name="Layer 2"><path class="cls-1" d="M16.35,25.29c0-8,0-15.95,0-23.92C16.34.26,16.67,0,17.74,0q34,0,68.1,0c1.06,0,1.4.24,1.4,1.36q-.06,22.74,0,45.48c0,1.07-.31,1.32-1.33,1.31-4.86-.05-9.71,0-14.57,0a2.34,2.34,0,0,0-1.77.72c-4.19,4-8.39,8-12.65,11.91-1.16,1.07-2.3,2.16-3.44,3.24-.28.26-.52.61-1.1.55v-2c0-4.42,0-8.84,0-13.26,0-1-.3-1.21-1.22-1.19-2,.06-3.95,0-5.92,0V41.94c4.21,0,8.43,0,12.64,0,1.15,0,1-.59,1-1.32s.11-1.33-1-1.31c-4.21.07-8.43,0-12.64,0V31.79c10.74,0,21.48,0,32.22,0,1,0,1.28-.27,1.23-1.24s0-1.4-1.23-1.39c-10.74.06-21.48,0-32.22,0,0-.75,0-1.5,0-2.25,0-1.62,0-1.62-1.56-1.62H21.43C19.74,25.35,18,25.32,16.35,25.29Zm35.56-6.13c-8.61,0-17.21,0-25.82,0-1,0-1.18.32-1.17,1.22s.11,1.32,1.19,1.32q25.7-.05,51.41,0c1,0,1.21-.34,1.22-1.27s-.22-1.27-1.23-1.26C69,19.18,60.44,19.16,51.91,19.16ZM61.86,7c-5.33,0-10.66,0-16,0-1.19,0-1.09.59-1.11,1.38s0,1.26,1.1,1.25q15.87-.07,31.74,0c1,0,1.14-.42,1.11-1.24s.11-1.41-1.1-1.39C72.36,7,67.11,7,61.86,7ZM32,7c-2.09,0-4.18,0-6.27,0-1.12,0-.77.77-.78,1.31s-.32,1.3.79,1.29c4.18,0,8.36,0,12.53,0,1.1,0,.84-.68.82-1.25s.37-1.4-.84-1.36C36.17,7,34.08,7,32,7Zm39.7,35c2,0,4.1,0,6.15,0,1.21,0,.81-.79.83-1.37s.28-1.26-.82-1.25q-6.21.08-12.41,0c-1.13,0-.93.66-.92,1.3S64.28,42,65.43,42C67.52,41.89,69.61,41.94,71.7,41.94Z"/><path class="cls-2" d="M45.27,31.79V48.12c0,2-.08,3.95,0,5.92,0,1.06-.24,1.42-1.37,1.41-6.28-.05-12.56,0-18.83,0-1.56,0-1.56,0-1.56,1.61,0,3.15,0,6.29,0,9.73-1.17-1-2.14-1.85-3.09-2.7-3-2.67-6-5.34-9-8a2.31,2.31,0,0,0-1.7-.62c-2.84,0-5.69,0-8.53,0C.3,55.46,0,55.26,0,54.34q.05-14,0-28c0-.84.25-1.06,1.07-1.06,4.62,0,9.24,0,13.86,0,.47,0,.95,0,1.42,0,1.69,0,3.39.06,5.08.06H43.68c1.56,0,1.56,0,1.56,1.62,0,.75,0,1.5,0,2.25S45.27,30.93,45.27,31.79ZM22.16,44.38c-4.66,0-9.31,0-14,0-1.18,0-1.1.58-1.12,1.38S7.14,47,8.18,47q14-.07,27.94,0c1,0,1.14-.43,1.11-1.25s.09-1.41-1.11-1.39C31.47,44.42,26.82,44.38,22.16,44.38Zm7-10.93c2.36,0,4.73-.06,7.09,0,1,0,1.05-.51,1-1.22s.3-1.42-.94-1.41q-7.09.09-14.18,0c-1.23,0-.9.76-.95,1.41s0,1.26,1,1.22C24.48,33.39,26.81,33.45,29.13,33.45Z"/><path class="cls-3" d="M51.91,19.16c8.53,0,17.06,0,25.58,0,1,0,1.24.3,1.23,1.26s-.18,1.28-1.22,1.27q-25.7-.05-51.41,0c-1.08,0-1.18-.43-1.19-1.32s.2-1.22,1.17-1.22C34.69,19.18,43.3,19.16,51.91,19.16Z"/><path class="cls-4" d="M61.86,7c5.25,0,10.5,0,15.75,0,1.21,0,1.06.62,1.1,1.39s-.06,1.25-1.11,1.24q-15.87-.07-31.74,0c-1.06,0-1.12-.44-1.1-1.25s-.08-1.39,1.11-1.38C51.2,7,56.53,7,61.86,7Z"/><path class="cls-5" d="M45.27,31.79q0-1.29,0-2.57c10.74,0,21.48,0,32.22,0,1.2,0,1.19.5,1.23,1.39s-.23,1.25-1.23,1.24C66.75,31.78,56,31.79,45.27,31.79Z"/><path class="cls-6" d="M32,7c2.09,0,4.18,0,6.27,0,1.2,0,.82.79.84,1.36s.28,1.26-.82,1.25c-4.18,0-8.36,0-12.53,0-1.11,0-.8-.74-.79-1.29s-.35-1.33.78-1.31C27.82,7,29.91,7,32,7Z"/><path class="cls-4" d="M71.7,41.94c-2.09,0-4.18-.05-6.27,0-1.15,0-.9-.7-.91-1.32s-.22-1.32.92-1.3q6.21.09,12.41,0c1.1,0,.84.68.82,1.25s.37,1.4-.83,1.37C75.8,41.9,73.75,41.94,71.7,41.94Z"/><path class="cls-4" d="M45.27,41.94V39.36c4.21,0,8.43,0,12.64,0,1.15,0,1,.58,1,1.31s.11,1.34-1,1.32C53.7,41.9,49.48,41.94,45.27,41.94Z"/><path class="cls-7" d="M22.16,44.38c4.66,0,9.31,0,14,0,1.2,0,1.08.61,1.11,1.39S37.17,47,36.13,47q-14-.07-27.94,0c-1,0-1.13-.43-1.11-1.25S7,44.33,8.19,44.35C12.84,44.42,17.5,44.38,22.16,44.38Z"/><path class="cls-7" d="M29.13,33.45c-2.32,0-4.65-.05-7,0-1,0-1.07-.48-1-1.22s-.28-1.42.95-1.41q7.09.08,14.18,0c1.24,0,.89.77.94,1.41s.05,1.26-1,1.22C33.86,33.39,31.5,33.45,29.13,33.45Z"/></g></g></svg>