<svg xmlns="http://www.w3.org/2000/svg" viewBox="0 0 63.91 64.92"><title>imie</title><g id="Calque_2" data-name="Calque 2"><g id="Layer_2" data-name="Layer 2"><path d="M47,52.52c.46.2,7.29.17,7.29.17v2.89h-6.1a3.92,3.92,0,0,1-3.89-4V48.56a4,4,0,0,1,.39-1.71l.55.58c.15-.1.32-.42.47-.37l.77.81c.16-.09.32-.42.47-.37l.86.9-1.26,1.24.36.38.42-.41.41.43c.16-.09.31-.42.47-.37l.36.38c.16-.1.31-.43.47-.37l.36.38c.15-.1.31-.42.47-.37l.36.38c.16-.09.31-.42.47-.37l.41.43.42-.41.41.43.47-.46.41.43.33-.32L48.68,45.1l-.33.32c.09.16.42.32.36.47l-.42.41c.09.16.42.32.36.47l-.42.41-.41-.43c-.15.09-.31.42-.47.37l-.77-.81c-.16.09-.32.42-.47.36l-.75-.8a3.85,3.85,0,0,1,2.87-1.29h3c2.39,0,3.69.93,3.69,2.95a29.63,29.63,0,0,1-.66,4.09L47,51.72c-.18,0-.29.69,0,.81m-3.38-7.91H40.25V42.54h3.41Zm-.06,11H40.25V45.08h3.36Zm-4.09,0H36.16v-7a.54.54,0,0,0-.53-.54H33a.54.54,0,0,0-.53.54v7H29.08v-7a.54.54,0,0,0-.53-.54H25.91a.55.55,0,0,0-.55.54v7H22v-7a3.94,3.94,0,0,1,3.91-4h2.64a2.89,2.89,0,0,1,2.22,1.23A2.86,2.86,0,0,1,33,44.61h2.66a3.92,3.92,0,0,1,3.89,4Zm-18.2-11H17.91V42.54h3.41Zm-.06,11H17.91V45.08h3.36ZM0,64.92H63.91V0H0Z"/></g></g></svg>