<svg xmlns="http://www.w3.org/2000/svg" viewBox="0 0 98.22 67.96"><defs><style>.cls-1{fill:#c1c1c1;}.cls-2{fill:#595958;}.cls-3{fill:#fff;}.cls-4{fill:#e5e5e5;}</style></defs><title>docs</title><g id="Calque_2" data-name="Calque 2"><g id="Layer_2" data-name="Layer 2"><path class="cls-1" d="M14.77,0h70a6.66,6.66,0,0,1,6.66,6.66V58.55a0,0,0,0,1,0,0H8.11a0,0,0,0,1,0,0V6.66A6.66,6.66,0,0,1,14.77,0Z"/><path class="cls-2" d="M49.08,4H84.27C85.92,4,86,4,86,5.69q0,23.12,0,46.24c0,1.61-.1,1.7-1.73,1.7H14c-.28,0-.56,0-.84,0a.79.79,0,0,1-.84-.85c0-.25,0-.51,0-.76q0-23.21,0-46.41C12.28,4,12.34,4,13.89,4Zm0,48.06q17.13,0,34.26,0c.86,0,1.07-.23,1.07-1.08q0-22.2,0-44.39c0-.86-.23-1.08-1.08-1.08q-34.22,0-68.44,0c-.87,0-1.09.25-1.08,1.09q0,22.2,0,44.39c0,.87.26,1.07,1.1,1.07Q32,52,49.08,52Z"/><path class="cls-2" d="M49.11,58.38h40.6l7.17,0c1.14,0,1.29.16,1.3,1.33a26.2,26.2,0,0,0,0,2.87c.28,2.52-2,5.27-5.22,5.36H5.79a5.34,5.34,0,0,1-5-2.56,6.37,6.37,0,0,1-.73-2.45,26.86,26.86,0,0,1,0-3.2c0-1.16.2-1.35,1.39-1.35l35.11,0ZM96.57,60c-.47,0-.86-.05-1.25-.05H2.92a2,2,0,0,0-.75,0c-.22.1-.51.35-.52.55-.06.75,0,1.52,0,2.28a3.05,3.05,0,0,0,1.79,3A6.13,6.13,0,0,0,6,66.35q43.12,0,86.24,0c.37,0,.73,0,1.1,0a3.59,3.59,0,0,0,3.23-2.86C96.64,62.36,96.57,61.24,96.57,60Z"/><path class="cls-3" d="M49.08,52Q32,52,14.9,52.05c-.84,0-1.1-.19-1.1-1.07q0-22.2,0-44.39c0-.84.22-1.09,1.08-1.09q34.22,0,68.44,0c.85,0,1.08.21,1.08,1.08q0,22.2,0,44.39c0,.85-.21,1.08-1.07,1.08Q66.21,52,49.08,52Z"/><path class="cls-4" d="M96.57,60c0,1.25.07,2.38,0,3.49a3.59,3.59,0,0,1-3.23,2.86c-.36,0-.73,0-1.1,0q-43.12,0-86.24,0a6.13,6.13,0,0,1-2.58-.55,3.05,3.05,0,0,1-1.79-3c0-.76,0-1.52,0-2.28,0-.2.3-.45.52-.55a2,2,0,0,1,.75,0h92.4C95.71,59.94,96.1,60,96.57,60Zm-52.17,3.7h9.48V62.21H44.39Z"/><path class="cls-2" d="M44.39,63.69V62.21h9.48v1.47Z"/><rect class="cls-1" x="17.51" y="9.2" width="62.85" height="12.68"/><rect class="cls-1" x="17.33" y="26.46" width="41.79" height="10.71"/><rect class="cls-4" x="63.2" y="26.46" width="16.82" height="10.71"/><rect class="cls-1" x="17.33" y="41.32" width="62.64" height="5.92"/></g></g></svg>