<svg xmlns="http://www.w3.org/2000/svg" viewBox="0 0 66.64 69.96"><defs><style>.cls-1{fill:#f3cf3f;}.cls-2{fill:#fff;}.cls-3{fill:#595958;}</style></defs><title>date</title><g id="Calque_2" data-name="Calque 2"><g id="Layer_2" data-name="Layer 2"><rect class="cls-1" y="5.4" width="66.64" height="64.56" rx="4.47" ry="4.47"/><rect class="cls-2" x="9.13" y="16.24" width="48.39" height="42.89" rx="2.32" ry="2.32"/><rect class="cls-3" x="13.52" width="4.83" height="9.05" rx="1.85" ry="1.85"/><rect class="cls-3" x="25.4" width="4.83" height="9.05" rx="1.85" ry="1.85"/><rect class="cls-3" x="36.65" width="4.83" height="9.05" rx="1.85" ry="1.85"/><rect class="cls-3" x="48.29" width="4.83" height="9.05" rx="1.85" ry="1.85"/><path class="cls-3" d="M31.46,35.57a9.22,9.22,0,0,0,2-.14,5.48,5.48,0,0,0,1.76-.62,3.44,3.44,0,0,0,1.25-1.22,3.57,3.57,0,0,0,.48-1.9,3.22,3.22,0,0,0-1.07-2.54,4,4,0,0,0-2.77-1A3.64,3.64,0,0,0,30,29.77a5.09,5.09,0,0,0-.76,1.62A6.05,6.05,0,0,0,29,33.24H27.12a1.86,1.86,0,0,1-1.81-2.3,9.42,9.42,0,0,1,.33-1,8.37,8.37,0,0,1,1.64-2.66,7.26,7.26,0,0,1,2.52-1.76,8.4,8.4,0,0,1,3.35-.64,9.72,9.72,0,0,1,2.84.42,8.35,8.35,0,0,1,2.5,1.23,5.93,5.93,0,0,1,2.45,4.93,6.16,6.16,0,0,1-.84,3.26,4.84,4.84,0,0,1-2.64,2v.07a5.1,5.1,0,0,1,3.3,2.1,7.53,7.53,0,0,1,.48,7.22,7.17,7.17,0,0,1-1.9,2.36A8.81,8.81,0,0,1,36.53,50a11.31,11.31,0,0,1-7.1-.09,7.18,7.18,0,0,1-2.68-1.74,7.52,7.52,0,0,1-1.64-2.71,9.78,9.78,0,0,1-.36-1.27,1.87,1.87,0,0,1,1.83-2.25h.24a1.9,1.9,0,0,1,1.83,1.59,5.07,5.07,0,0,0,1,2.17,4.23,4.23,0,0,0,3.54,1.5A5,5,0,0,0,36.55,46a4,4,0,0,0,1.36-3.26,4.08,4.08,0,0,0-.56-2.29,3.65,3.65,0,0,0-1.48-1.29,6,6,0,0,0-2.06-.55l-.59,0a1.85,1.85,0,0,1-1.75-1.85Z"/></g></g></svg>