<svg xmlns="http://www.w3.org/2000/svg" viewBox="0 0 69.23 69.17"><defs><style>.cls-1{fill:#ea3d4f;}.cls-2{fill:#fff;}</style></defs><title>user-red_2</title><g id="Calque_2" data-name="Calque 2"><g id="Layer_2" data-name="Layer 2"><path d="M69.23,34.69A34.37,34.37,0,0,1,34.62,69.17,34.58,34.58,0,1,1,69.23,34.69ZM12.72,58.11c.63-.49,1.21-1,1.81-1.42a59.13,59.13,0,0,1,10.41-5.92A7.37,7.37,0,0,0,27.37,49c1-1.22.94-1.45-.24-2.54-.26-.25-.53-.49-.78-.75a12.62,12.62,0,0,1-3.83-9.31c.12-4.21,0-8.42,0-12.63a16.32,16.32,0,0,1,.21-2.87c.9-4.86,3.3-8.55,8.33-9.83a18,18,0,0,1,5.44-.45,10.76,10.76,0,0,1,9.64,6.25,14.16,14.16,0,0,1,1.49,6.27q0,7.22,0,14.44a7.71,7.71,0,0,1-.14,1.52,13.68,13.68,0,0,1-4.79,7.75,1,1,0,0,0-.29,1.39,5.53,5.53,0,0,0,2.93,2.55,52.86,52.86,0,0,1,11.43,6.65,1.24,1.24,0,0,0,.3.13A32.11,32.11,0,1,0,10.9,13C-1.85,27.13.88,47.48,12.72,58.11Zm42.42,1.21c-.36-.29-.69-.58-1.05-.84a53.84,53.84,0,0,0-10-5.54,7.71,7.71,0,0,1-4.6-5.63,1.65,1.65,0,0,1,.65-1.81,21.11,21.11,0,0,0,2.3-2,9.67,9.67,0,0,0,2.76-6.92c-.1-4.3,0-8.6,0-12.9A16,16,0,0,0,45,21.42a10.13,10.13,0,0,0-15.77-6.87c-2.92,2-4,5-4.14,8.3-.13,4.93,0,9.86,0,14.8a4.17,4.17,0,0,0,.1.89,11.72,11.72,0,0,0,4.72,6.81c1,.75,1.16,1.08.86,2.27a7.55,7.55,0,0,1-4.45,5.32,50.39,50.39,0,0,0-10.77,6.15c-.3.23-.57.5-.87.76C26.76,69.65,44.81,68.47,55.14,59.31Z"/><path class="cls-1" d="M12.72,58.11C.88,47.48-1.85,27.13,10.9,13A32.11,32.11,0,1,1,57.11,57.54a1.24,1.24,0,0,1-.3-.13,52.86,52.86,0,0,0-11.43-6.65,5.53,5.53,0,0,1-2.93-2.55,1,1,0,0,1,.29-1.39,13.68,13.68,0,0,0,4.79-7.75,7.71,7.71,0,0,0,.14-1.52q0-7.22,0-14.44a14.16,14.16,0,0,0-1.49-6.27,10.76,10.76,0,0,0-9.64-6.25,18,18,0,0,0-5.44.45c-5,1.28-7.43,5-8.33,9.83a16.32,16.32,0,0,0-.21,2.87c0,4.21.08,8.42,0,12.63a12.62,12.62,0,0,0,3.83,9.31c.25.26.51.51.78.75,1.17,1.09,1.28,1.32.24,2.54a7.37,7.37,0,0,1-2.44,1.77,59.13,59.13,0,0,0-10.41,5.92C13.92,57.14,13.34,57.61,12.72,58.11Z"/><path class="cls-2" d="M55.14,59.31c-10.33,9.16-28.37,10.33-40.49.53.3-.26.57-.53.87-.76a50.39,50.39,0,0,1,10.77-6.15,7.55,7.55,0,0,0,4.45-5.32c.3-1.19.13-1.52-.86-2.27a11.72,11.72,0,0,1-4.72-6.81,4.17,4.17,0,0,1-.1-.89c0-4.93-.1-9.87,0-14.8.09-3.34,1.22-6.32,4.14-8.3A10.13,10.13,0,0,1,45,21.42a16,16,0,0,1,.17,2.24c0,4.3-.07,8.6,0,12.9a9.67,9.67,0,0,1-2.76,6.92,21.11,21.11,0,0,1-2.3,2,1.65,1.65,0,0,0-.65,1.81,7.71,7.71,0,0,0,4.6,5.63,53.84,53.84,0,0,1,10,5.54C54.44,58.74,54.78,59,55.14,59.31Z"/></g></g></svg>